<svg xmlns="http://www.w3.org/2000/svg" xmlns:xlink="http://www.w3.org/1999/xlink" width="100%" zoomAndPan="magnify" viewBox="0 0 375 374.999991" height="100%" preserveAspectRatio="xMidYMid meet" version="1.0"><defs><g/><clipPath id="5884eacfb8"><path d="M 23.316406 41.066406 L 351.683594 41.066406 L 351.683594 50.914062 L 23.316406 50.914062 Z M 341.941406 50.914062 L 351.683594 50.914062 L 351.683594 359.691406 L 341.941406 359.691406 Z M 23.316406 50.914062 L 33.167969 50.914062 L 33.167969 359.691406 L 23.316406 359.691406 Z M 23.316406 359.691406 L 351.683594 359.691406 L 351.683594 369.433594 L 23.316406 369.433594 Z M 23.316406 359.691406 " clip-rule="nonzero"/></clipPath></defs><g clip-path="url(#5884eacfb8)"><path fill="#000000" d="M 23.316406 41.066406 L 351.683594 41.066406 L 351.683594 369.433594 L 23.316406 369.433594 Z M 23.316406 41.066406 " fill-opacity="1" fill-rule="nonzero"/></g><g fill="#000000" fill-opacity="1"><g transform="translate(37.141482, 145.082442)"><g><path d="M 46.855469 0 L 58.40625 0 L 34.761719 -65.382812 L 22.882812 -65.382812 L -0.761719 0 L 10.789062 0 L 15.472656 -13.839844 L 42.171875 -13.839844 Z M 18.632812 -23.210938 L 28.875 -53.722656 L 39.121094 -23.210938 Z M 18.632812 -23.210938 "/></g></g></g><g fill="#000000" fill-opacity="1"><g transform="translate(94.772591, 145.082442)"><g><path d="M 45.441406 -65.382812 L 0.21875 -65.382812 L 0.21875 -55.464844 L 17.542969 -55.464844 L 17.542969 0 L 28.113281 0 L 28.113281 -55.464844 L 45.441406 -55.464844 Z M 45.441406 -65.382812 "/></g></g></g><g fill="#000000" fill-opacity="1"><g transform="translate(140.41991, 145.082442)"><g><path d="M 45.441406 -65.382812 L 0.21875 -65.382812 L 0.21875 -55.464844 L 17.542969 -55.464844 L 17.542969 0 L 28.113281 0 L 28.113281 -55.464844 L 45.441406 -55.464844 Z M 45.441406 -65.382812 "/></g></g></g><g fill="#000000" fill-opacity="1"><g transform="translate(37.141482, 233.780149)"><g><path d="M 45.222656 -55.683594 L 45.222656 -65.382812 L 7.738281 -65.382812 L 7.738281 0 L 45.222656 0 L 45.222656 -9.699219 L 18.414062 -9.699219 L 18.414062 -27.785156 L 41.625 -27.785156 L 41.625 -37.59375 L 18.414062 -37.59375 L 18.414062 -55.683594 Z M 45.222656 -55.683594 "/></g></g></g><g fill="#000000" fill-opacity="1"><g transform="translate(87.909144, 233.780149)"><g><path d="M 54.15625 -65.382812 L 54.15625 -16.890625 L 17.871094 -65.382812 L 7.191406 -65.382812 L 7.191406 0 L 17.871094 0 L 17.871094 -48.601562 L 54.046875 0 L 64.726562 0 L 64.726562 -65.382812 Z M 54.15625 -65.382812 "/></g></g></g><g fill="#000000" fill-opacity="1"><g transform="translate(159.811858, 233.780149)"><g><path d="M 7.191406 0 L 26.804688 0 C 44.894531 0 59.496094 -14.601562 59.496094 -32.691406 C 59.496094 -50.78125 44.894531 -65.382812 26.804688 -65.382812 L 7.191406 -65.382812 Z M 17.761719 -9.917969 L 17.761719 -55.464844 L 26.804688 -55.464844 C 39.230469 -55.464844 48.925781 -45.765625 48.925781 -32.691406 C 48.925781 -19.613281 39.230469 -9.917969 26.804688 -9.917969 Z M 17.761719 -9.917969 "/></g></g></g><g fill="#000000" fill-opacity="1"><g transform="translate(223.979574, 233.780149)"><g><path d="M 46.855469 0 L 58.40625 0 L 34.761719 -65.382812 L 22.882812 -65.382812 L -0.761719 0 L 10.789062 0 L 15.472656 -13.839844 L 42.171875 -13.839844 Z M 18.632812 -23.210938 L 28.875 -53.722656 L 39.121094 -23.210938 Z M 18.632812 -23.210938 "/></g></g></g><g fill="#000000" fill-opacity="1"><g transform="translate(37.141482, 322.477855)"><g><path d="M 54.15625 -65.382812 L 54.15625 -16.890625 L 17.871094 -65.382812 L 7.191406 -65.382812 L 7.191406 0 L 17.871094 0 L 17.871094 -48.601562 L 54.046875 0 L 64.726562 0 L 64.726562 -65.382812 Z M 54.15625 -65.382812 "/></g></g></g><g fill="#000000" fill-opacity="1"><g transform="translate(109.044196, 322.477855)"><g><path d="M 38.246094 0.871094 C 50.996094 0.871094 62.003906 -6.210938 67.667969 -16.671875 L 58.515625 -21.574219 C 54.703125 -14.382812 47.074219 -9.699219 38.246094 -9.699219 C 25.390625 -9.699219 15.253906 -19.722656 15.253906 -32.691406 C 15.253906 -45.65625 25.390625 -55.683594 38.246094 -55.683594 C 47.074219 -55.683594 54.703125 -50.996094 58.515625 -43.804688 L 67.667969 -48.707031 C 62.003906 -59.167969 50.996094 -66.253906 38.246094 -66.253906 C 19.722656 -66.253906 4.6875 -51.214844 4.6875 -32.691406 C 4.6875 -14.164062 19.722656 0.871094 38.246094 0.871094 Z M 38.246094 0.871094 "/></g></g></g><g fill="#000000" fill-opacity="1"><g transform="translate(179.857459, 322.477855)"><g><path d="M 45.222656 -55.683594 L 45.222656 -65.382812 L 7.738281 -65.382812 L 7.738281 0 L 45.222656 0 L 45.222656 -9.699219 L 18.414062 -9.699219 L 18.414062 -27.785156 L 41.625 -27.785156 L 41.625 -37.59375 L 18.414062 -37.59375 L 18.414062 -55.683594 Z M 45.222656 -55.683594 "/></g></g></g><g fill="#000000" fill-opacity="1"><g transform="translate(96.201301, 354.626235)"><g/></g></g><g fill="#000000" fill-opacity="1"><g transform="translate(105.013544, 354.626235)"><g><path d="M 15.351562 -22.089844 L 0.0742188 -22.089844 L 0.0742188 -18.742188 L 5.925781 -18.742188 L 5.925781 0 L 9.5 0 L 9.5 -18.742188 L 15.351562 -18.742188 Z M 15.351562 -22.089844 "/></g></g></g><g fill="#000000" fill-opacity="1"><g transform="translate(120.43479, 354.626235)"><g><path d="M 19.511719 -12.589844 L 17.304688 -12.589844 L 17.304688 -16.015625 L 13.84375 -16.015625 L 13.84375 -12.589844 L 10.089844 -12.589844 C 8.0625 -12.589844 6.441406 -14.027344 6.441406 -15.941406 C 6.441406 -17.78125 7.914062 -18.777344 9.5 -18.8125 L 13.84375 -18.8125 L 13.84375 -22.089844 L 8.875 -22.089844 C 5.523438 -22.203125 2.945312 -19.585938 2.945312 -16.164062 C 2.945312 -14.136719 3.867188 -12.371094 5.300781 -11.15625 C 3.792969 -9.976562 2.835938 -8.171875 2.835938 -6.222656 C 2.835938 -2.578125 6.074219 0 10.160156 0 C 14.394531 0 17.304688 -2.796875 17.304688 -6.628906 L 17.304688 -9.460938 L 19.511719 -9.460938 Z M 10.089844 -3.054688 C 7.953125 -3.054688 6.113281 -4.34375 6.113281 -6.296875 C 6.113281 -8.0625 7.65625 -9.460938 9.535156 -9.460938 L 13.84375 -9.460938 L 13.84375 -6.628906 C 13.84375 -4.566406 12.40625 -3.054688 10.089844 -3.054688 Z M 10.089844 -3.054688 "/></g></g></g><g fill="#000000" fill-opacity="1"><g transform="translate(141.082329, 354.626235)"><g><path d="M 15.832031 0 L 19.734375 0 L 11.746094 -22.089844 L 7.730469 -22.089844 L -0.257812 0 L 3.644531 0 L 5.226562 -4.675781 L 14.25 -4.675781 Z M 6.296875 -7.84375 L 9.757812 -18.152344 L 13.21875 -7.84375 Z M 6.296875 -7.84375 "/></g></g></g><g fill="#000000" fill-opacity="1"><g transform="translate(160.552113, 354.626235)"><g/></g></g><g fill="#000000" fill-opacity="1"><g transform="translate(169.385295, 354.626235)"><g><path d="M 8.578125 0.292969 C 12.554688 0.292969 15.792969 -2.0625 15.792969 -6.039062 C 15.792969 -13.878906 5.339844 -11.964844 5.339844 -16.496094 C 5.339844 -18.226562 6.699219 -19.035156 8.320312 -19.035156 C 9.792969 -19.035156 11.117188 -18.371094 12.113281 -17.121094 L 14.652344 -19.441406 C 13.253906 -21.171875 10.933594 -22.386719 8.320312 -22.386719 C 4.859375 -22.386719 1.730469 -20.214844 1.730469 -16.238281 C 1.730469 -8.910156 12.1875 -10.714844 12.1875 -6.039062 C 12.1875 -4.234375 10.675781 -3.167969 8.617188 -3.167969 C 6.371094 -3.167969 4.675781 -4.417969 3.902344 -6.296875 L 0.808594 -4.417969 C 2.097656 -1.65625 5.042969 0.292969 8.578125 0.292969 Z M 8.578125 0.292969 "/></g></g></g><g fill="#000000" fill-opacity="1"><g transform="translate(186.094716, 354.626235)"><g><path d="M 18.8125 -22.089844 L 14.652344 -22.089844 L 9.316406 -13.769531 L 4.011719 -22.089844 L -0.222656 -22.089844 L 7.511719 -10.382812 L 7.511719 0 L 11.117188 0 L 11.117188 -10.457031 Z M 18.8125 -22.089844 "/></g></g></g><g fill="#000000" fill-opacity="1"><g transform="translate(204.681176, 354.626235)"><g><path d="M 8.578125 0.292969 C 12.554688 0.292969 15.792969 -2.0625 15.792969 -6.039062 C 15.792969 -13.878906 5.339844 -11.964844 5.339844 -16.496094 C 5.339844 -18.226562 6.699219 -19.035156 8.320312 -19.035156 C 9.792969 -19.035156 11.117188 -18.371094 12.113281 -17.121094 L 14.652344 -19.441406 C 13.253906 -21.171875 10.933594 -22.386719 8.320312 -22.386719 C 4.859375 -22.386719 1.730469 -20.214844 1.730469 -16.238281 C 1.730469 -8.910156 12.1875 -10.714844 12.1875 -6.039062 C 12.1875 -4.234375 10.675781 -3.167969 8.617188 -3.167969 C 6.371094 -3.167969 4.675781 -4.417969 3.902344 -6.296875 L 0.808594 -4.417969 C 2.097656 -1.65625 5.042969 0.292969 8.578125 0.292969 Z M 8.578125 0.292969 "/></g></g></g><g fill="#000000" fill-opacity="1"><g transform="translate(221.390596, 354.626235)"><g><path d="M 15.351562 -22.089844 L 0.0742188 -22.089844 L 0.0742188 -18.742188 L 5.925781 -18.742188 L 5.925781 0 L 9.5 0 L 9.5 -18.742188 L 15.351562 -18.742188 Z M 15.351562 -22.089844 "/></g></g></g><g fill="#000000" fill-opacity="1"><g transform="translate(236.811842, 354.626235)"><g><path d="M 15.28125 -18.8125 L 15.28125 -22.089844 L 2.613281 -22.089844 L 2.613281 0 L 15.28125 0 L 15.28125 -3.277344 L 6.222656 -3.277344 L 6.222656 -9.386719 L 14.0625 -9.386719 L 14.0625 -12.703125 L 6.222656 -12.703125 L 6.222656 -18.8125 Z M 15.28125 -18.8125 "/></g></g></g><g fill="#000000" fill-opacity="1"><g transform="translate(253.962911, 354.626235)"><g><path d="M 21.796875 -22.089844 L 14.027344 -4.785156 L 6.296875 -22.089844 L 2.429688 -22.089844 L 2.429688 0 L 6.039062 0 L 6.039062 -15.207031 L 12.8125 0 L 15.207031 0 L 22.054688 -15.242188 L 22.054688 0 L 25.625 0 L 25.625 -22.089844 Z M 21.796875 -22.089844 "/></g></g></g><g fill="#000000" fill-opacity="1"><g transform="translate(31.36258, 32.201876)"><g><path d="M 8.558594 0.292969 C 12.527344 0.292969 15.757812 -2.058594 15.757812 -6.023438 C 15.757812 -13.847656 5.328125 -11.9375 5.328125 -16.457031 C 5.328125 -18.183594 6.6875 -18.992188 8.300781 -18.992188 C 9.769531 -18.992188 11.09375 -18.332031 12.085938 -17.082031 L 14.621094 -19.394531 C 13.222656 -21.121094 10.910156 -22.335938 8.300781 -22.335938 C 4.847656 -22.335938 1.726562 -20.167969 1.726562 -16.199219 C 1.726562 -8.890625 12.160156 -10.691406 12.160156 -6.023438 C 12.160156 -4.222656 10.652344 -3.160156 8.597656 -3.160156 C 6.355469 -3.160156 4.664062 -4.40625 3.894531 -6.28125 L 0.808594 -4.40625 C 2.09375 -1.652344 5.03125 0.292969 8.558594 0.292969 Z M 8.558594 0.292969 "/></g></g></g><g fill="#000000" fill-opacity="1"><g transform="translate(48.03609, 32.201876)"><g><path d="M 2.609375 0 L 6.207031 0 L 6.207031 -22.039062 L 2.609375 -22.039062 Z M 2.609375 0 "/></g></g></g><g fill="#000000" fill-opacity="1"><g transform="translate(56.813557, 32.201876)"><g><path d="M 21.746094 -22.039062 L 13.996094 -4.777344 L 6.28125 -22.039062 L 2.425781 -22.039062 L 2.425781 0 L 6.023438 0 L 6.023438 -15.171875 L 12.785156 0 L 15.171875 0 L 22.003906 -15.207031 L 22.003906 0 L 25.566406 0 L 25.566406 -22.039062 Z M 21.746094 -22.039062 "/></g></g></g><g fill="#000000" fill-opacity="1"><g transform="translate(84.798621, 32.201876)"><g><path d="M 11.058594 -22.039062 L 2.425781 -22.039062 L 2.425781 0 L 6.023438 0 L 6.023438 -9.367188 L 11.058594 -9.367188 C 14.621094 -9.367188 17.410156 -12.085938 17.410156 -15.648438 C 17.410156 -19.175781 14.621094 -22.039062 11.058594 -22.039062 Z M 10.542969 -12.488281 L 6.023438 -12.488281 L 6.023438 -18.769531 L 10.542969 -18.769531 C 12.453125 -18.769531 13.886719 -17.523438 13.886719 -15.613281 C 13.886719 -13.664062 12.453125 -12.488281 10.542969 -12.488281 Z M 10.542969 -12.488281 "/></g></g></g><g fill="#000000" fill-opacity="1"><g transform="translate(102.573905, 32.201876)"><g><path d="M 6.023438 -3.34375 L 6.023438 -22.039062 L 2.425781 -22.039062 L 2.425781 0 L 13.773438 0 L 13.773438 -3.34375 Z M 6.023438 -3.34375 "/></g></g></g><g fill="#000000" fill-opacity="1"><g transform="translate(116.529709, 32.201876)"><g><path d="M 15.246094 -18.769531 L 15.246094 -22.039062 L 2.609375 -22.039062 L 2.609375 0 L 15.246094 0 L 15.246094 -3.269531 L 6.207031 -3.269531 L 6.207031 -9.367188 L 14.03125 -9.367188 L 14.03125 -12.671875 L 6.207031 -12.671875 L 6.207031 -18.769531 Z M 15.246094 -18.769531 "/></g></g></g><g fill="#000000" fill-opacity="1"><g transform="translate(133.64393, 32.201876)"><g/></g></g><g fill="#000000" fill-opacity="1"><g transform="translate(142.45812, 32.201876)"><g><path d="M 15.796875 0 L 19.691406 0 L 11.71875 -22.039062 L 7.714844 -22.039062 L -0.257812 0 L 3.636719 0 L 5.214844 -4.664062 L 14.214844 -4.664062 Z M 6.28125 -7.824219 L 9.734375 -18.109375 L 13.1875 -7.824219 Z M 6.28125 -7.824219 "/></g></g></g><g fill="#000000" fill-opacity="1"><g transform="translate(161.886069, 32.201876)"><g><path d="M 18.257812 -22.039062 L 18.257812 -5.695312 L 6.023438 -22.039062 L 2.425781 -22.039062 L 2.425781 0 L 6.023438 0 L 6.023438 -16.382812 L 18.21875 0 L 21.820312 0 L 21.820312 -22.039062 Z M 18.257812 -22.039062 "/></g></g></g><g fill="#000000" fill-opacity="1"><g transform="translate(186.125109, 32.201876)"><g><path d="M 2.425781 0 L 9.035156 0 C 15.132812 0 20.058594 -4.921875 20.058594 -11.019531 C 20.058594 -17.117188 15.132812 -22.039062 9.035156 -22.039062 L 2.425781 -22.039062 Z M 5.988281 -3.34375 L 5.988281 -18.699219 L 9.035156 -18.699219 C 13.222656 -18.699219 16.492188 -15.429688 16.492188 -11.019531 C 16.492188 -6.613281 13.222656 -3.34375 9.035156 -3.34375 Z M 5.988281 -3.34375 "/></g></g></g><g fill="#000000" fill-opacity="1"><g transform="translate(207.756606, 32.201876)"><g/></g></g><g fill="#000000" fill-opacity="1"><g transform="translate(216.570796, 32.201876)"><g><path d="M 12.636719 -9.585938 C 15.390625 -10.175781 17.410156 -12.601562 17.410156 -15.574219 C 17.410156 -19.175781 14.621094 -22.039062 11.058594 -22.039062 L 2.425781 -22.039062 L 2.425781 0 L 6.023438 0 L 6.023438 -9.257812 L 9.074219 -9.257812 L 14.914062 0 L 18.953125 0 Z M 6.023438 -12.378906 L 6.023438 -18.699219 L 10.617188 -18.699219 C 12.488281 -18.699219 13.886719 -17.410156 13.886719 -15.539062 C 13.886719 -13.664062 12.488281 -12.378906 10.617188 -12.378906 Z M 6.023438 -12.378906 "/></g></g></g><g fill="#000000" fill-opacity="1"><g transform="translate(235.594749, 32.201876)"><g><path d="M 15.246094 -18.769531 L 15.246094 -22.039062 L 2.609375 -22.039062 L 2.609375 0 L 15.246094 0 L 15.246094 -3.269531 L 6.207031 -3.269531 L 6.207031 -9.367188 L 14.03125 -9.367188 L 14.03125 -12.671875 L 6.207031 -12.671875 L 6.207031 -18.769531 Z M 15.246094 -18.769531 "/></g></g></g><g fill="#000000" fill-opacity="1"><g transform="translate(252.708962, 32.201876)"><g><path d="M 6.023438 -3.34375 L 6.023438 -22.039062 L 2.425781 -22.039062 L 2.425781 0 L 13.773438 0 L 13.773438 -3.34375 Z M 6.023438 -3.34375 "/></g></g></g><g fill="#000000" fill-opacity="1"><g transform="translate(266.664757, 32.201876)"><g><path d="M 2.609375 0 L 6.207031 0 L 6.207031 -22.039062 L 2.609375 -22.039062 Z M 2.609375 0 "/></g></g></g><g fill="#000000" fill-opacity="1"><g transform="translate(275.442224, 32.201876)"><g><path d="M 15.796875 0 L 19.691406 0 L 11.71875 -22.039062 L 7.714844 -22.039062 L -0.257812 0 L 3.636719 0 L 5.214844 -4.664062 L 14.214844 -4.664062 Z M 6.28125 -7.824219 L 9.734375 -18.109375 L 13.1875 -7.824219 Z M 6.28125 -7.824219 "/></g></g></g><g fill="#000000" fill-opacity="1"><g transform="translate(294.870172, 32.201876)"><g><path d="M 14.511719 -11.167969 C 16.308594 -12.046875 17.449219 -13.703125 17.449219 -16.054688 C 17.449219 -19.691406 14.621094 -22.039062 11.09375 -22.039062 L 2.425781 -22.039062 L 2.425781 0 L 11.902344 0 C 15.390625 0 18.183594 -2.277344 18.183594 -5.914062 C 18.183594 -8.597656 16.675781 -10.359375 14.511719 -11.167969 Z M 13.847656 -15.683594 C 13.847656 -13.960938 12.417969 -12.601562 10.691406 -12.601562 L 5.988281 -12.601562 L 5.988281 -18.699219 L 10.691406 -18.699219 C 12.417969 -18.699219 13.847656 -17.449219 13.847656 -15.683594 Z M 11.386719 -3.34375 L 5.988281 -3.34375 L 5.988281 -9.441406 L 11.386719 -9.441406 C 13.152344 -9.441406 14.582031 -8.082031 14.582031 -6.355469 C 14.582031 -4.628906 13.152344 -3.34375 11.386719 -3.34375 Z M 11.386719 -3.34375 "/></g></g></g><g fill="#000000" fill-opacity="1"><g transform="translate(314.445034, 32.201876)"><g><path d="M 6.023438 -3.34375 L 6.023438 -22.039062 L 2.425781 -22.039062 L 2.425781 0 L 13.773438 0 L 13.773438 -3.34375 Z M 6.023438 -3.34375 "/></g></g></g><g fill="#000000" fill-opacity="1"><g transform="translate(328.400829, 32.201876)"><g><path d="M 15.246094 -18.769531 L 15.246094 -22.039062 L 2.609375 -22.039062 L 2.609375 0 L 15.246094 0 L 15.246094 -3.269531 L 6.207031 -3.269531 L 6.207031 -9.367188 L 14.03125 -9.367188 L 14.03125 -12.671875 L 6.207031 -12.671875 L 6.207031 -18.769531 Z M 15.246094 -18.769531 "/></g></g></g></svg>