<svg xmlns="http://www.w3.org/2000/svg" xmlns:xlink="http://www.w3.org/1999/xlink" width="80%" zoomAndPan="magnify" viewBox="80 80 300 300" height="80%" preserveAspectRatio="xMidYMid meet" version="1.0"><defs><g/><clipPath id="bb192387fd"><path d="M 113.878906 113.878906 L 261.035156 113.878906 L 261.035156 118.292969 L 113.878906 118.292969 Z M 256.671875 118.292969 L 261.035156 118.292969 L 261.035156 256.671875 L 256.671875 256.671875 Z M 113.878906 118.292969 L 118.292969 118.292969 L 118.292969 256.671875 L 113.878906 256.671875 Z M 113.878906 256.671875 L 261.035156 256.671875 L 261.035156 261.035156 L 113.878906 261.035156 Z M 113.878906 256.671875 " clip-rule="nonzero"/></clipPath></defs><g clip-path="url(#bb192387fd)"><path fill="#000000" d="M 113.878906 113.878906 L 261.035156 113.878906 L 261.035156 261.035156 L 113.878906 261.035156 Z M 113.878906 113.878906 " fill-opacity="1" fill-rule="nonzero"/></g><g fill="#000000" fill-opacity="1"><g transform="translate(120.073926, 160.493778)"><g><path d="M 21 0 L 26.175781 0 L 15.578125 -29.300781 L 10.253906 -29.300781 L -0.34375 0 L 4.835938 0 L 6.933594 -6.203125 L 18.898438 -6.203125 Z M 8.351562 -10.402344 L 12.941406 -24.074219 L 17.53125 -10.402344 Z M 8.351562 -10.402344 "/></g></g></g><g fill="#000000" fill-opacity="1"><g transform="translate(145.901386, 160.493778)"><g><path d="M 20.363281 -29.300781 L 0.0976562 -29.300781 L 0.0976562 -24.855469 L 7.863281 -24.855469 L 7.863281 0 L 12.597656 0 L 12.597656 -24.855469 L 20.363281 -24.855469 Z M 20.363281 -29.300781 "/></g></g></g><g fill="#000000" fill-opacity="1"><g transform="translate(166.358294, 160.493778)"><g><path d="M 20.363281 -29.300781 L 0.0976562 -29.300781 L 0.0976562 -24.855469 L 7.863281 -24.855469 L 7.863281 0 L 12.597656 0 L 12.597656 -24.855469 L 20.363281 -24.855469 Z M 20.363281 -29.300781 "/></g></g></g><g fill="#000000" fill-opacity="1"><g transform="translate(120.073926, 200.243776)"><g><path d="M 20.265625 -24.953125 L 20.265625 -29.300781 L 3.46875 -29.300781 L 3.46875 0 L 20.265625 0 L 20.265625 -4.347656 L 8.253906 -4.347656 L 8.253906 -12.453125 L 18.65625 -12.453125 L 18.65625 -16.847656 L 8.253906 -16.847656 L 8.253906 -24.953125 Z M 20.265625 -24.953125 "/></g></g></g><g fill="#000000" fill-opacity="1"><g transform="translate(142.825523, 200.243776)"><g><path d="M 24.269531 -29.300781 L 24.269531 -7.570312 L 8.007812 -29.300781 L 3.222656 -29.300781 L 3.222656 0 L 8.007812 0 L 8.007812 -21.78125 L 24.222656 0 L 29.007812 0 L 29.007812 -29.300781 Z M 24.269531 -29.300781 "/></g></g></g><g fill="#000000" fill-opacity="1"><g transform="translate(175.048821, 200.243776)"><g><path d="M 3.222656 0 L 12.011719 0 C 20.121094 0 26.664062 -6.542969 26.664062 -14.648438 C 26.664062 -22.757812 20.121094 -29.300781 12.011719 -29.300781 L 3.222656 -29.300781 Z M 7.960938 -4.445312 L 7.960938 -24.855469 L 12.011719 -24.855469 C 17.582031 -24.855469 21.925781 -20.511719 21.925781 -14.648438 C 21.925781 -8.789062 17.582031 -4.445312 12.011719 -4.445312 Z M 7.960938 -4.445312 "/></g></g></g><g fill="#000000" fill-opacity="1"><g transform="translate(203.80567, 200.243776)"><g><path d="M 21 0 L 26.175781 0 L 15.578125 -29.300781 L 10.253906 -29.300781 L -0.34375 0 L 4.835938 0 L 6.933594 -6.203125 L 18.898438 -6.203125 Z M 8.351562 -10.402344 L 12.941406 -24.074219 L 17.53125 -10.402344 Z M 8.351562 -10.402344 "/></g></g></g><g fill="#000000" fill-opacity="1"><g transform="translate(120.073926, 239.993773)"><g><path d="M 24.269531 -29.300781 L 24.269531 -7.570312 L 8.007812 -29.300781 L 3.222656 -29.300781 L 3.222656 0 L 8.007812 0 L 8.007812 -21.78125 L 24.222656 0 L 29.007812 0 L 29.007812 -29.300781 Z M 24.269531 -29.300781 "/></g></g></g><g fill="#000000" fill-opacity="1"><g transform="translate(152.297225, 239.993773)"><g><path d="M 17.140625 0.390625 C 22.855469 0.390625 27.785156 -2.785156 30.324219 -7.472656 L 26.222656 -9.667969 C 24.515625 -6.445312 21.097656 -4.347656 17.140625 -4.347656 C 11.378906 -4.347656 6.835938 -8.839844 6.835938 -14.648438 C 6.835938 -20.460938 11.378906 -24.953125 17.140625 -24.953125 C 21.097656 -24.953125 24.515625 -22.855469 26.222656 -19.632812 L 30.324219 -21.828125 C 27.785156 -26.515625 22.855469 -29.691406 17.140625 -29.691406 C 8.839844 -29.691406 2.101562 -22.953125 2.101562 -14.648438 C 2.101562 -6.347656 8.839844 0.390625 17.140625 0.390625 Z M 17.140625 0.390625 "/></g></g></g><g fill="#000000" fill-opacity="1"><g transform="translate(184.032285, 239.993773)"><g><path d="M 20.265625 -24.953125 L 20.265625 -29.300781 L 3.46875 -29.300781 L 3.46875 0 L 20.265625 0 L 20.265625 -4.347656 L 8.253906 -4.347656 L 8.253906 -12.453125 L 18.65625 -12.453125 L 18.65625 -16.847656 L 8.253906 -16.847656 L 8.253906 -24.953125 Z M 20.265625 -24.953125 "/></g></g></g><g fill="#000000" fill-opacity="1"><g transform="translate(146.541661, 254.40114)"><g/></g></g><g fill="#000000" fill-opacity="1"><g transform="translate(150.490879, 254.40114)"><g><path d="M 6.878906 -9.898438 L 0.03125 -9.898438 L 0.03125 -8.398438 L 2.65625 -8.398438 L 2.65625 0 L 4.257812 0 L 4.257812 -8.398438 L 6.878906 -8.398438 Z M 6.878906 -9.898438 "/></g></g></g><g fill="#000000" fill-opacity="1"><g transform="translate(157.401931, 254.40114)"><g><path d="M 8.746094 -5.644531 L 7.753906 -5.644531 L 7.753906 -7.175781 L 6.203125 -7.175781 L 6.203125 -5.644531 L 4.519531 -5.644531 C 3.613281 -5.644531 2.886719 -6.285156 2.886719 -7.144531 C 2.886719 -7.96875 3.546875 -8.414062 4.257812 -8.429688 L 6.203125 -8.429688 L 6.203125 -9.898438 L 3.976562 -9.898438 C 2.476562 -9.949219 1.320312 -8.777344 1.320312 -7.242188 C 1.320312 -6.335938 1.734375 -5.542969 2.375 -5 C 1.699219 -4.472656 1.269531 -3.664062 1.269531 -2.789062 C 1.269531 -1.15625 2.722656 0 4.554688 0 C 6.453125 0 7.753906 -1.253906 7.753906 -2.96875 L 7.753906 -4.242188 L 8.746094 -4.242188 Z M 4.519531 -1.371094 C 3.5625 -1.371094 2.738281 -1.945312 2.738281 -2.820312 C 2.738281 -3.613281 3.433594 -4.242188 4.273438 -4.242188 L 6.203125 -4.242188 L 6.203125 -2.96875 C 6.203125 -2.046875 5.558594 -1.371094 4.519531 -1.371094 Z M 4.519531 -1.371094 "/></g></g></g><g fill="#000000" fill-opacity="1"><g transform="translate(166.655154, 254.40114)"><g><path d="M 7.09375 0 L 8.84375 0 L 5.261719 -9.898438 L 3.464844 -9.898438 L -0.117188 0 L 1.632812 0 L 2.34375 -2.09375 L 6.386719 -2.09375 Z M 2.820312 -3.515625 L 4.371094 -8.132812 L 5.921875 -3.515625 Z M 2.820312 -3.515625 "/></g></g></g><g fill="#000000" fill-opacity="1"><g transform="translate(175.380564, 254.40114)"><g/></g></g><g fill="#000000" fill-opacity="1"><g transform="translate(179.339167, 254.40114)"><g><path d="M 3.84375 0.132812 C 5.625 0.132812 7.078125 -0.925781 7.078125 -2.707031 C 7.078125 -6.21875 2.390625 -5.363281 2.390625 -7.390625 C 2.390625 -8.167969 3.003906 -8.53125 3.730469 -8.53125 C 4.390625 -8.53125 4.984375 -8.234375 5.429688 -7.671875 L 6.566406 -8.710938 C 5.941406 -9.488281 4.902344 -10.03125 3.730469 -10.03125 C 2.179688 -10.03125 0.777344 -9.058594 0.777344 -7.277344 C 0.777344 -3.992188 5.460938 -4.800781 5.460938 -2.707031 C 5.460938 -1.898438 4.785156 -1.417969 3.859375 -1.417969 C 2.855469 -1.417969 2.09375 -1.980469 1.75 -2.820312 L 0.363281 -1.980469 C 0.941406 -0.742188 2.261719 0.132812 3.84375 0.132812 Z M 3.84375 0.132812 "/></g></g></g><g fill="#000000" fill-opacity="1"><g transform="translate(186.827516, 254.40114)"><g><path d="M 8.429688 -9.898438 L 6.566406 -9.898438 L 4.175781 -6.171875 L 1.796875 -9.898438 L -0.0976562 -9.898438 L 3.367188 -4.652344 L 3.367188 0 L 4.984375 0 L 4.984375 -4.6875 Z M 8.429688 -9.898438 "/></g></g></g><g fill="#000000" fill-opacity="1"><g transform="translate(195.157064, 254.40114)"><g><path d="M 3.84375 0.132812 C 5.625 0.132812 7.078125 -0.925781 7.078125 -2.707031 C 7.078125 -6.21875 2.390625 -5.363281 2.390625 -7.390625 C 2.390625 -8.167969 3.003906 -8.53125 3.730469 -8.53125 C 4.390625 -8.53125 4.984375 -8.234375 5.429688 -7.671875 L 6.566406 -8.710938 C 5.941406 -9.488281 4.902344 -10.03125 3.730469 -10.03125 C 2.179688 -10.03125 0.777344 -9.058594 0.777344 -7.277344 C 0.777344 -3.992188 5.460938 -4.800781 5.460938 -2.707031 C 5.460938 -1.898438 4.785156 -1.417969 3.859375 -1.417969 C 2.855469 -1.417969 2.09375 -1.980469 1.75 -2.820312 L 0.363281 -1.980469 C 0.941406 -0.742188 2.261719 0.132812 3.84375 0.132812 Z M 3.84375 0.132812 "/></g></g></g><g fill="#000000" fill-opacity="1"><g transform="translate(202.645413, 254.40114)"><g><path d="M 6.878906 -9.898438 L 0.03125 -9.898438 L 0.03125 -8.398438 L 2.65625 -8.398438 L 2.65625 0 L 4.257812 0 L 4.257812 -8.398438 L 6.878906 -8.398438 Z M 6.878906 -9.898438 "/></g></g></g><g fill="#000000" fill-opacity="1"><g transform="translate(209.556465, 254.40114)"><g><path d="M 6.847656 -8.429688 L 6.847656 -9.898438 L 1.171875 -9.898438 L 1.171875 0 L 6.847656 0 L 6.847656 -1.46875 L 2.789062 -1.46875 L 2.789062 -4.207031 L 6.304688 -4.207031 L 6.304688 -5.691406 L 2.789062 -5.691406 L 2.789062 -8.429688 Z M 6.847656 -8.429688 "/></g></g></g><g fill="#000000" fill-opacity="1"><g transform="translate(217.24274, 254.40114)"><g><path d="M 9.769531 -9.898438 L 6.285156 -2.144531 L 2.820312 -9.898438 L 1.089844 -9.898438 L 1.089844 0 L 2.707031 0 L 2.707031 -6.816406 L 5.742188 0 L 6.816406 0 L 9.882812 -6.832031 L 9.882812 0 L 11.484375 0 L 11.484375 -9.898438 Z M 9.769531 -9.898438 "/></g></g></g><g fill="#000000" fill-opacity="1"><g transform="translate(117.484111, 109.906208)"><g><path d="M 3.835938 0.132812 C 5.613281 0.132812 7.0625 -0.921875 7.0625 -2.699219 C 7.0625 -6.207031 2.386719 -5.351562 2.386719 -7.375 C 2.386719 -8.148438 2.996094 -8.511719 3.71875 -8.511719 C 4.378906 -8.511719 4.972656 -8.214844 5.417969 -7.65625 L 6.550781 -8.691406 C 5.925781 -9.464844 4.890625 -10.007812 3.71875 -10.007812 C 2.171875 -10.007812 0.773438 -9.039062 0.773438 -7.261719 C 0.773438 -3.984375 5.449219 -4.789062 5.449219 -2.699219 C 5.449219 -1.894531 4.773438 -1.414062 3.851562 -1.414062 C 2.847656 -1.414062 2.089844 -1.976562 1.746094 -2.816406 L 0.363281 -1.976562 C 0.9375 -0.742188 2.253906 0.132812 3.835938 0.132812 Z M 3.835938 0.132812 "/></g></g></g><g fill="#000000" fill-opacity="1"><g transform="translate(124.956366, 109.906208)"><g><path d="M 1.167969 0 L 2.78125 0 L 2.78125 -9.878906 L 1.167969 -9.878906 Z M 1.167969 0 "/></g></g></g><g fill="#000000" fill-opacity="1"><g transform="translate(128.889999, 109.906208)"><g><path d="M 9.746094 -9.878906 L 6.273438 -2.140625 L 2.816406 -9.878906 L 1.085938 -9.878906 L 1.085938 0 L 2.699219 0 L 2.699219 -6.800781 L 5.730469 0 L 6.800781 0 L 9.859375 -6.816406 L 9.859375 0 L 11.457031 0 L 11.457031 -9.878906 Z M 9.746094 -9.878906 "/></g></g></g><g fill="#000000" fill-opacity="1"><g transform="translate(141.431543, 109.906208)"><g><path d="M 4.957031 -9.878906 L 1.085938 -9.878906 L 1.085938 0 L 2.699219 0 L 2.699219 -4.199219 L 4.957031 -4.199219 C 6.550781 -4.199219 7.804688 -5.417969 7.804688 -7.011719 C 7.804688 -8.59375 6.550781 -9.878906 4.957031 -9.878906 Z M 4.726562 -5.597656 L 2.699219 -5.597656 L 2.699219 -8.414062 L 4.726562 -8.414062 C 5.582031 -8.414062 6.222656 -7.851562 6.222656 -6.996094 C 6.222656 -6.125 5.582031 -5.597656 4.726562 -5.597656 Z M 4.726562 -5.597656 "/></g></g></g><g fill="#000000" fill-opacity="1"><g transform="translate(149.39756, 109.906208)"><g><path d="M 2.699219 -1.5 L 2.699219 -9.878906 L 1.085938 -9.878906 L 1.085938 0 L 6.171875 0 L 6.171875 -1.5 Z M 2.699219 -1.5 "/></g></g></g><g fill="#000000" fill-opacity="1"><g transform="translate(155.651872, 109.906208)"><g><path d="M 6.832031 -8.414062 L 6.832031 -9.878906 L 1.167969 -9.878906 L 1.167969 0 L 6.832031 0 L 6.832031 -1.464844 L 2.78125 -1.464844 L 2.78125 -4.199219 L 6.289062 -4.199219 L 6.289062 -5.679688 L 2.78125 -5.679688 L 2.78125 -8.414062 Z M 6.832031 -8.414062 "/></g></g></g><g fill="#000000" fill-opacity="1"><g transform="translate(163.321633, 109.906208)"><g/></g></g><g fill="#000000" fill-opacity="1"><g transform="translate(167.271724, 109.906208)"><g><path d="M 7.078125 0 L 8.824219 0 L 5.25 -9.878906 L 3.457031 -9.878906 L -0.117188 0 L 1.628906 0 L 2.335938 -2.089844 L 6.371094 -2.089844 Z M 2.816406 -3.507812 L 4.363281 -8.117188 L 5.910156 -3.507812 Z M 2.816406 -3.507812 "/></g></g></g><g fill="#000000" fill-opacity="1"><g transform="translate(175.978385, 109.906208)"><g><path d="M 8.183594 -9.878906 L 8.183594 -2.550781 L 2.699219 -9.878906 L 1.085938 -9.878906 L 1.085938 0 L 2.699219 0 L 2.699219 -7.34375 L 8.164062 0 L 9.777344 0 L 9.777344 -9.878906 Z M 8.183594 -9.878906 "/></g></g></g><g fill="#000000" fill-opacity="1"><g transform="translate(186.841143, 109.906208)"><g><path d="M 1.085938 0 L 4.050781 0 C 6.78125 0 8.988281 -2.207031 8.988281 -4.9375 C 8.988281 -7.671875 6.78125 -9.878906 4.050781 -9.878906 L 1.085938 -9.878906 Z M 2.683594 -1.5 L 2.683594 -8.378906 L 4.050781 -8.378906 C 5.925781 -8.378906 7.390625 -6.914062 7.390625 -4.9375 C 7.390625 -2.964844 5.925781 -1.5 4.050781 -1.5 Z M 2.683594 -1.5 "/></g></g></g><g fill="#000000" fill-opacity="1"><g transform="translate(196.535326, 109.906208)"><g/></g></g><g fill="#000000" fill-opacity="1"><g transform="translate(200.485417, 109.906208)"><g><path d="M 5.664062 -4.296875 C 6.898438 -4.558594 7.804688 -5.648438 7.804688 -6.980469 C 7.804688 -8.59375 6.550781 -9.878906 4.957031 -9.878906 L 1.085938 -9.878906 L 1.085938 0 L 2.699219 0 L 2.699219 -4.148438 L 4.066406 -4.148438 L 6.683594 0 L 8.496094 0 Z M 2.699219 -5.546875 L 2.699219 -8.378906 L 4.757812 -8.378906 C 5.597656 -8.378906 6.222656 -7.804688 6.222656 -6.964844 C 6.222656 -6.125 5.597656 -5.546875 4.757812 -5.546875 Z M 2.699219 -5.546875 "/></g></g></g><g fill="#000000" fill-opacity="1"><g transform="translate(209.011027, 109.906208)"><g><path d="M 6.832031 -8.414062 L 6.832031 -9.878906 L 1.167969 -9.878906 L 1.167969 0 L 6.832031 0 L 6.832031 -1.464844 L 2.78125 -1.464844 L 2.78125 -4.199219 L 6.289062 -4.199219 L 6.289062 -5.679688 L 2.78125 -5.679688 L 2.78125 -8.414062 Z M 6.832031 -8.414062 "/></g></g></g><g fill="#000000" fill-opacity="1"><g transform="translate(216.680784, 109.906208)"><g><path d="M 2.699219 -1.5 L 2.699219 -9.878906 L 1.085938 -9.878906 L 1.085938 0 L 6.171875 0 L 6.171875 -1.5 Z M 2.699219 -1.5 "/></g></g></g><g fill="#000000" fill-opacity="1"><g transform="translate(222.935092, 109.906208)"><g><path d="M 1.167969 0 L 2.78125 0 L 2.78125 -9.878906 L 1.167969 -9.878906 Z M 1.167969 0 "/></g></g></g><g fill="#000000" fill-opacity="1"><g transform="translate(226.868725, 109.906208)"><g><path d="M 7.078125 0 L 8.824219 0 L 5.25 -9.878906 L 3.457031 -9.878906 L -0.117188 0 L 1.628906 0 L 2.335938 -2.089844 L 6.371094 -2.089844 Z M 2.816406 -3.507812 L 4.363281 -8.117188 L 5.910156 -3.507812 Z M 2.816406 -3.507812 "/></g></g></g><g fill="#000000" fill-opacity="1"><g transform="translate(235.575386, 109.906208)"><g><path d="M 6.503906 -5.003906 C 7.308594 -5.398438 7.820312 -6.140625 7.820312 -7.195312 C 7.820312 -8.824219 6.550781 -9.878906 4.972656 -9.878906 L 1.085938 -9.878906 L 1.085938 0 L 5.332031 0 C 6.898438 0 8.148438 -1.019531 8.148438 -2.652344 C 8.148438 -3.851562 7.472656 -4.640625 6.503906 -5.003906 Z M 6.207031 -7.03125 C 6.207031 -6.253906 5.5625 -5.648438 4.789062 -5.648438 L 2.683594 -5.648438 L 2.683594 -8.378906 L 4.789062 -8.378906 C 5.5625 -8.378906 6.207031 -7.820312 6.207031 -7.03125 Z M 5.101562 -1.5 L 2.683594 -1.5 L 2.683594 -4.230469 L 5.101562 -4.230469 C 5.894531 -4.230469 6.535156 -3.621094 6.535156 -2.847656 C 6.535156 -2.074219 5.894531 -1.5 5.101562 -1.5 Z M 5.101562 -1.5 "/></g></g></g><g fill="#000000" fill-opacity="1"><g transform="translate(244.347886, 109.906208)"><g><path d="M 2.699219 -1.5 L 2.699219 -9.878906 L 1.085938 -9.878906 L 1.085938 0 L 6.171875 0 L 6.171875 -1.5 Z M 2.699219 -1.5 "/></g></g></g><g fill="#000000" fill-opacity="1"><g transform="translate(250.602194, 109.906208)"><g><path d="M 6.832031 -8.414062 L 6.832031 -9.878906 L 1.167969 -9.878906 L 1.167969 0 L 6.832031 0 L 6.832031 -1.464844 L 2.78125 -1.464844 L 2.78125 -4.199219 L 6.289062 -4.199219 L 6.289062 -5.679688 L 2.78125 -5.679688 L 2.78125 -8.414062 Z M 6.832031 -8.414062 "/></g></g></g></svg>