<svg xmlns="http://www.w3.org/2000/svg" width="100%" viewBox="70 10 350 350" height="100%" version="1.0"><defs><clipPath id="prefix__a"><path d="M113.879 113.879h147.156v4.414H113.88zm142.793 4.414h4.363v138.379h-4.363zm-142.793 0h4.414v138.379h-4.414zm0 138.379h147.156v4.363H113.88zm0 0"/></clipPath></defs><g clip-path="url(#prefix__a)"><path d="M113.879 113.879h147.156v147.156H113.88zm0 0"/></g><path d="M141.074 160.494h5.176l-10.598-29.301h-5.324l-10.598 29.3h5.18l2.098-6.202h11.964zm-12.649-10.403l4.59-13.671 4.59 13.671zm0 0M166.265 131.193h-20.266v4.445h7.766v24.856h4.734v-24.856h7.766zm0 0M186.722 131.193h-20.266v4.445h7.766v24.856h4.734v-24.856h7.766zm0 0M140.34 175.29v-4.347h-16.797v29.3h16.797v-4.347h-12.012v-8.105h10.402v-4.395h-10.402v-8.105zm0 0M167.095 170.943v21.73l-16.262-21.73h-4.785v29.3h4.785v-21.78l16.215 21.78h4.785v-29.3zm0 0M178.271 200.244h8.79a14.63 14.63 0 0014.652-14.649 14.63 14.63 0 00-14.652-14.652h-8.79zm4.739-4.446v-20.41h4.05c5.57 0 9.915 4.344 9.915 10.207 0 5.86-4.344 10.203-9.914 10.203zm0 0M224.806 200.244h5.175l-10.597-29.301h-5.324l-10.598 29.3h5.18l2.097-6.202h11.965zm-12.649-10.403l4.59-13.671 4.59 13.671zm0 0M144.343 210.693v21.73l-16.261-21.73h-4.785v29.3h4.785v-21.78l16.215 21.78h4.785v-29.3zm0 0M169.438 240.384c5.715 0 10.644-3.175 13.183-7.863l-4.101-2.195c-1.707 3.222-5.125 5.32-9.082 5.32-5.762 0-10.305-4.492-10.305-10.3 0-5.813 4.543-10.305 10.305-10.305 3.957 0 7.375 2.097 9.082 5.32l4.101-2.195c-2.539-4.688-7.468-7.864-13.183-7.864-8.3 0-15.04 6.739-15.04 15.043 0 8.301 6.74 15.04 15.04 15.04zm0 0M204.298 215.04v-4.347H187.5v29.3h16.797v-4.347h-12.012v-8.105h10.403v-4.395h-10.403v-8.105zm0 0M157.37 244.503h-6.848v1.5h2.625v8.398h1.602v-8.398h2.62zm0 0M166.148 248.757h-.992v-1.532h-1.55v1.532h-1.685c-.906 0-1.632-.641-1.632-1.5 0-.825.66-1.27 1.37-1.286h1.946v-1.468h-2.227c-1.5-.051-2.656 1.12-2.656 2.656 0 .906.414 1.7 1.055 2.242-.676.527-1.106 1.336-1.106 2.211 0 1.633 1.454 2.79 3.286 2.79 1.898 0 3.199-1.255 3.199-2.97v-1.273h.992zm-4.227 4.273c-.957 0-1.78-.574-1.78-1.45 0-.792.695-1.421 1.534-1.421h1.93v1.273c0 .922-.644 1.598-1.684 1.598zm0 0M173.749 254.401h1.75l-3.582-9.898h-1.797l-3.582 9.898h1.75l.71-2.094h4.044zm-4.274-3.515l1.551-4.618 1.551 4.618zm0 0M183.183 254.534c1.781 0 3.234-1.059 3.234-2.84 0-3.512-4.687-2.656-4.687-4.683 0-.778.613-1.141 1.34-1.141.66 0 1.254.297 1.699.86l1.137-1.04c-.625-.777-1.664-1.32-2.836-1.32-1.551 0-2.953.973-2.953 2.754 0 3.285 4.683 2.476 4.683 4.57 0 .809-.676 1.29-1.601 1.29-1.004 0-1.766-.563-2.11-1.403l-1.387.84c.579 1.238 1.899 2.113 3.48 2.113zm0 0M195.257 244.503h-1.863l-2.39 3.726-2.38-3.726h-1.894l3.465 5.246v4.652h1.617v-4.687zm0 0M199 254.534c1.782 0 3.235-1.059 3.235-2.84 0-3.512-4.687-2.656-4.687-4.683 0-.778.613-1.141 1.34-1.141.66 0 1.253.297 1.699.86l1.136-1.04c-.625-.777-1.664-1.32-2.835-1.32-1.551 0-2.954.973-2.954 2.754 0 3.285 4.684 2.476 4.684 4.57 0 .809-.676 1.29-1.602 1.29-1.003 0-1.765-.563-2.109-1.403l-1.387.84c.578 1.238 1.899 2.113 3.48 2.113zm0 0M209.524 244.503h-6.847v1.5h2.625v8.398h1.601v-8.398h2.621zm0 0M216.404 245.971v-1.468h-5.676v9.898h5.676v-1.469h-4.058v-2.738h3.515v-1.484h-3.515v-2.739zm0 0M227.012 244.503l-3.484 7.754-3.465-7.754h-1.73v9.898h1.617v-6.816l3.035 6.816h1.074l3.067-6.832v6.832h1.601v-9.898zm0 0M121.32 110.039c1.777 0 3.227-1.055 3.227-2.832 0-3.508-4.676-2.652-4.676-4.676 0-.773.61-1.137 1.332-1.137.66 0 1.254.297 1.7.856l1.132-1.035c-.625-.774-1.66-1.317-2.832-1.317-1.547 0-2.945.97-2.945 2.746 0 3.278 4.675 2.473 4.675 4.563 0 .805-.675 1.285-1.597 1.285-1.004 0-1.762-.562-2.106-1.402l-1.383.84c.575 1.234 1.891 2.109 3.473 2.109zm0 0M126.124 109.906h1.614v-9.879h-1.614zm0 0M138.636 100.027l-3.473 7.739-3.457-7.739h-1.73v9.88h1.613v-6.802l3.031 6.801h1.07l3.06-6.816v6.816h1.597v-9.879zm0 0M146.389 100.027h-3.872v9.88h1.614v-4.2h2.258c1.593 0 2.847-1.219 2.847-2.813a2.845 2.845 0 00-2.847-2.867zm-.23 4.282h-2.028v-2.817h2.027c.856 0 1.496.563 1.496 1.418 0 .871-.64 1.399-1.496 1.399zm0 0M152.097 108.406v-8.379h-1.614v9.88h5.086v-1.5zm0 0M162.484 101.492v-1.465h-5.664v9.88h5.664v-1.466h-4.05v-2.734h3.507v-1.48h-3.508v-2.735zm0 0M174.35 109.906h1.746l-3.574-9.879h-1.793l-3.574 9.88h1.746l.707-2.09h4.035zm-4.262-3.508l1.547-4.609 1.547 4.61zm0 0M184.162 100.027v7.328l-5.484-7.328h-1.614v9.88h1.614v-7.345l5.464 7.344h1.614v-9.879zm0 0M187.927 109.906h2.965a4.933 4.933 0 004.937-4.937 4.934 4.934 0 00-4.937-4.942h-2.965zm1.598-1.5v-6.879h1.367c1.875 0 3.34 1.465 3.34 3.442 0 1.972-1.465 3.437-3.34 3.437zm0 0M206.15 105.61c1.234-.262 2.14-1.352 2.14-2.684 0-1.614-1.254-2.899-2.848-2.899h-3.87v9.88h1.613v-4.15h1.367l2.617 4.15h1.813zm-2.965-1.25v-2.833h2.058c.84 0 1.465.575 1.465 1.414 0 .84-.625 1.418-1.465 1.418zm0 0M215.843 101.492v-1.465h-5.664v9.88h5.664v-1.466h-4.05v-2.734h3.507v-1.48h-3.508v-2.735zm0 0M219.38 108.406v-8.379h-1.613v9.88h5.086v-1.5zm0 0M224.103 109.906h1.613v-9.879h-1.613zm0 0M233.947 109.906h1.746l-3.574-9.879h-1.793l-3.574 9.88h1.746l.707-2.09h4.035zm-4.262-3.508l1.547-4.609 1.547 4.61zm0 0M242.08 104.902c.804-.394 1.316-1.136 1.316-2.191 0-1.629-1.27-2.684-2.848-2.684h-3.887v9.88h4.246c1.567 0 2.817-1.02 2.817-2.653 0-1.2-.676-1.988-1.645-2.352zm-.298-2.027c0 .777-.644 1.383-1.418 1.383h-2.105v-2.73h2.105c.774 0 1.418.558 1.418 1.347zm-1.105 5.531h-2.418v-2.73h2.418c.793 0 1.434.61 1.434 1.383s-.641 1.347-1.434 1.347zm0 0M247.047 108.406v-8.379h-1.613v9.88h5.086v-1.5zm0 0M257.434 101.492v-1.465h-5.664v9.88h5.664v-1.466h-4.05v-2.734h3.507v-1.48h-3.508v-2.735zm0 0"/></svg>